<?xml version="1.0" ?>
<!-- Uploaded to: SVG Repo, www.svgrepo.com, Generator: SVG Repo Mixer Tools -->
<svg width="800px" height="800px" viewBox="0 0 64 64" xmlns="http://www.w3.org/2000/svg">
<g id="a"/>
<g id="b"/>
<g id="c"/>
<g id="d"/>
<g id="e"/>
<g id="f"/>
<g id="g"/>
<g id="h"/>
<g id="i"/>
<g id="j"/>
<g id="k"/>
<g id="l"/>
<g id="m"/>
<g id="n"/>
<g id="o"/>
<g id="p"/>
<g id="q"/>
<g id="r"/>
<g id="s"/>
<g id="t"/>
<g id="u"/>
<g id="v">
<polygon fill="#758797" fill-rule="evenodd" points="42.71 10.78 21.29 10.78 19.27 12.18 19.9 17.36 45.38 16.16 42.71 10.78"/>
<path d="M44.58,7.84c-1.03,0-1.86,.83-1.86,1.86v6.36h12.61v-6.36c0-1.03-.83-1.86-1.86-1.86h-8.89Zm-34.04,0c-1.03,0-1.86,.83-1.86,1.86v6.36h12.61v-6.36c0-1.03-.83-1.86-1.86-1.86H10.54Z" fill="#8598ab" fill-rule="evenodd"/>
<path d="M59,47.03v-4.46c0-1.73-1.94-2.75-3.68-1.55-1.73,1.2-4.42,1.2-6.45-.21-2.03-1.41-4.72-1.41-6.75,0-2.03,1.41-4.72,1.41-6.75,0-1.02-.7-2.2-1.06-3.38-1.06s-2.36,.35-3.38,1.06c-2.03,1.41-4.72,1.41-6.75,0-1.02-.7-2.2-1.05-3.38-1.05s-2.36,.35-3.38,1.05c-2.03,1.41-4.72,1.41-6.45,.21-1.73-1.2-3.68-.18-3.68,1.55v4.46H59Z" fill="#62d9fa" fill-rule="evenodd"/>
<rect fill="#f0f4f6" height="26.47" width="46.65" x="8.68" y="21.01"/>
<path d="M42.71,25.92c-3.52,0-6.37,2.85-6.37,6.37,0,.63,.09,1.26,.28,1.86h12.19c.18-.61,.27-1.23,.27-1.86,0-3.52-2.85-6.37-6.37-6.37Zm-21.43,0c-3.52,0-6.37,2.85-6.37,6.37,0,.63,.09,1.25,.27,1.85h12.19c.18-.59,.28-1.22,.28-1.85,0-3.52-2.85-6.37-6.37-6.37Z" fill="#8598ab" fill-rule="evenodd"/>
<path d="M8.68,15.04H55.32c1.65,0,2.98,1.33,2.98,2.98s-1.33,2.98-2.98,2.98H8.68c-1.65,0-2.98-1.33-2.98-2.98s1.33-2.98,2.98-2.98Z" fill="#9dacb9" fill-rule="evenodd"/>
<path d="M32,44.21c-1.18,0-2.36,.35-3.38,1.06-2.03,1.41-4.72,1.41-6.75,0-1.02-.7-2.2-1.05-3.38-1.05s-2.36,.35-3.38,1.05c-2.03,1.41-4.72,1.41-6.45,.21s-3.68-.18-3.68,1.55v4.46l28.1,1.42,25.9-1.42v-4.46c0-1.73-1.94-2.75-3.68-1.55s-4.42,1.2-6.45-.21-4.72-1.41-6.75,0c-2.03,1.41-4.72,1.41-6.75,0-1.02-.7-2.2-1.06-3.38-1.06Z" fill="#0acffb" fill-rule="evenodd"/>
<path d="M32,48.67c-1.18,0-2.36,.35-3.38,1.06-2.03,1.41-4.72,1.41-6.75,0-1.02-.7-2.2-1.05-3.38-1.05s-2.36,.35-3.38,1.05c-2.03,1.41-4.72,1.41-6.45,.21-1.73-1.2-3.68-.18-3.68,1.55v1.47c0,1.77,1.43,3.2,3.2,3.2H55.8c1.77,0,3.2-1.43,3.2-3.2v-1.47c0-1.73-1.94-2.75-3.68-1.55-1.73,1.2-4.42,1.2-6.45-.21-2.03-1.41-4.72-1.41-6.75,0-2.03,1.41-4.72,1.41-6.75,0-1.02-.7-2.2-1.06-3.38-1.06Z" fill="#62d9fa" fill-rule="evenodd"/>
<path d="M38.48,32.29c-1.03,0-1.86,.83-1.86,1.86v13.78l12.18-.71v-13.07c0-1.03-.83-1.86-1.86-1.86h-8.46Zm-21.43,0c-1.03,0-1.86,.83-1.86,1.86v13.07l12.18,.71v-13.78c0-1.03-.83-1.86-1.86-1.86h-8.46Z" fill="#0acffb" fill-rule="evenodd"/>
<path d="M19.46,36.75c-.55,0-1,.45-1,1v1.36c0,.55,.45,1,1,1s1-.45,1-1v-1.36c0-.55-.45-1-1-1Z" fill="#62d9fa" fill-rule="evenodd"/>
<path d="M23.11,36.75c-.55,0-1,.45-1,1v3.56c0,.55,.45,1,1,1s1-.45,1-1v-3.56c0-.55-.45-1-1-1Z" fill="#62d9fa" fill-rule="evenodd"/>
<path d="M44.54,36.75c-.55,0-1,.45-1,1v1.36c0,.55,.45,1,1,1s1-.45,1-1v-1.36c0-.55-.45-1-1-1Z" fill="#62d9fa" fill-rule="evenodd"/>
<path d="M40.89,36.75c-.55,0-1,.45-1,1v3.56c0,.55,.45,1,1,1s1-.45,1-1v-3.56c0-.55-.45-1-1-1Z" fill="#62d9fa" fill-rule="evenodd"/>
</g>
<g id="w"/>
<g id="x"/>
<g id="y"/>
<g id="a`"/>
<g id="aa"/>
<g id="ab"/>
<g id="ac"/>
<g id="ad"/>
<g id="ae"/>
<g id="af"/>
<g id="ag"/>
<g id="ah"/>
<g id="ai"/>
<g id="aj"/>
<g id="ak"/>
<g id="al"/>
<g id="am"/>
<g id="an"/>
<g id="ao"/>
<g id="ap"/>
<g id="aq"/>
<g id="ar"/>
<g id="as"/>
<g id="at"/>
<g id="au"/>
<g id="av"/>
<g id="aw"/>
<g id="ax"/>
</svg>